<svg xmlns="http://www.w3.org/2000/svg" xmlns:xlink="http://www.w3.org/1999/xlink" width="48" height="48"><defs><linearGradient id="b" x1="868.253" x2="937.656" y1="521.354" y2="588.736" gradientTransform="translate(-1326.968 211.343) scale(1.53785)" gradientUnits="userSpaceOnUse" xlink:href="#a"/><linearGradient id="a"><stop offset="0" stop-color="#24f3d2"/><stop offset=".394" stop-color="#0674f0"/><stop offset=".507" stop-color="#6961b5"/><stop offset=".813" stop-color="#f34660"/><stop offset="1" stop-color="#ee078d"/></linearGradient></defs><g transform="translate(0 -1004.362)"><rect width="48" height="48" y="1004.362" fill="url(#b)" rx="10.144" ry="10.144"/><path style="line-height:normal;text-indent:0;text-align:start;text-decoration-line:none;text-decoration-style:solid;text-decoration-color:#000;text-transform:none;block-progression:tb;isolation:auto;mix-blend-mode:normal" fill="#fff" d="m31.299 1014.7-2.828 2.828a.5.5 0 0 0-.362-.146.5.5 0 0 0-.345.146l-1.415 1.414a2.507 2.507 0 0 0 0 3.537 2.505 2.505 0 0 0 3.536 0c.06-.06.105-.13.158-.195l.035.035c-.065.053-.133.1-.193.16a2.505 2.505 0 0 0 0 3.535 2.505 2.505 0 0 0 3.535 0l1.414-1.413a.5.5 0 0 0 0-.708l-.072-.07 2.83-2.83-.707-.707-2.83 2.83c-.281-.28-.46-.46-.635-.636l2.828-2.828-.707-.71-2.979 2.98a2.51 2.51 0 0 0-.91-.173 2.52 2.52 0 0 0-.367.035l3.549-3.549-.707-.707-3.547 3.547c.063-.428.02-.867-.139-1.275l2.979-2.979-.707-.707-2.828 2.829-.707-.708 2.828-2.828-.707-.707zm-1.414 11.315a2.492 2.492 0 0 0-1.768-.73c-.64 0-1.28.243-1.768.73a2.505 2.505 0 0 0 0 3.535 2.505 2.505 0 0 0 3.536 0l1.414-1.414a.5.5 0 0 0 0-.707l-1.414-1.414zm-3.536 3.535a2.497 2.497 0 0 0-1.769-.73c-.64 0-1.281.243-1.768.73a2.505 2.505 0 0 0 0 3.535 2.508 2.508 0 0 0 3.537 0l1.415-1.414a.5.5 0 0 0 0-.707l-1.415-1.414zm-3.537 3.535a2.49 2.49 0 0 0-1.767-.729 2.49 2.49 0 0 0-1.768.729c-.394.394-.62.889-.695 1.402l-5.668 5.668-.707-.705 5.672-5.672a2.473 2.473 0 0 0 1.398-.693 2.505 2.505 0 0 0 0-3.535l-1.414-1.414a.5.5 0 0 0-.361-.147.5.5 0 0 0-.346.147l-1.414 1.414a2.505 2.505 0 0 0 0 3.535c.252.252.546.435.86.557l-5.456 5.455a.5.5 0 0 0 0 .707l1.414 1.412a.5.5 0 0 0 .707 0l5.454-5.453c.121.312.305.606.556.857a2.505 2.505 0 0 0 3.535 0l1.414-1.414a.5.5 0 0 0 0-.707l-1.414-1.414zm-3.535-3.535a2.505 2.505 0 0 0 3.535 0 2.505 2.505 0 0 0 0-3.535l-1.414-1.414a.5.5 0 0 0-.359-.147.5.5 0 0 0-.348.147l-1.414 1.414a2.505 2.505 0 0 0 0 3.535zm3.535-3.535a2.508 2.508 0 0 0 3.537 0 2.505 2.505 0 0 0 0-3.536l-1.414-1.414a.5.5 0 0 0-.36-.146.5.5 0 0 0-.349.146l-1.414 1.414a2.505 2.505 0 0 0 0 3.536zm5.305-7.426 1.06 1.062a1.486 1.486 0 0 1 0 2.122 1.486 1.486 0 0 1-2.12 0 1.486 1.486 0 0 1 0-2.122l1.06-1.062zm-3.535 3.537 1.06 1.06a1.486 1.486 0 0 1 0 2.122 1.488 1.488 0 0 1-2.123 0 1.486 1.486 0 0 1 0-2.121l1.063-1.061zm7.07.615c.382 0 .764.149 1.06.445l1.061 1.061-1.06 1.06a1.486 1.486 0 0 1-2.121 0 1.486 1.486 0 0 1 0-2.12 1.495 1.495 0 0 1 1.06-.446zm-10.607 2.92 1.06 1.06a1.486 1.486 0 0 1 0 2.122 1.486 1.486 0 0 1-2.12 0 1.486 1.486 0 0 1 0-2.121l1.06-1.06zm7.072.615c.382 0 .764.149 1.06.446l1.061 1.06-1.06 1.06a1.486 1.486 0 0 1-2.121 0 1.486 1.486 0 0 1 0-2.12 1.495 1.495 0 0 1 1.06-.446zm-10.607 2.92 1.06 1.06a1.486 1.486 0 0 1 0 2.122 1.492 1.492 0 0 1-.904.43.5.5 0 0 0-.04 0 .5.5 0 0 0-.116.016c-.382 0-.764-.149-1.06-.446a1.486 1.486 0 0 1 0-2.12c.293-.295.754-.755 1.06-1.061zm7.07.616a1.5 1.5 0 0 1 1.062.445l1.061 1.06-1.06 1.06a1.488 1.488 0 0 1-2.124 0 1.486 1.486 0 0 1 0-2.12 1.495 1.495 0 0 1 1.061-.445zm-3.535 3.535c.382 0 .764.148 1.06.445l1.06 1.06-1.06 1.061a1.486 1.486 0 0 1-2.12 0 1.495 1.495 0 0 1-.446-1.06.5.5 0 0 0 .018-.18c.04-.32.178-.63.427-.88a1.495 1.495 0 0 1 1.06-.444z" color="#000" font-family="sans-serif" font-weight="400" overflow="visible"/></g></svg>